<svg width="20" height="24" viewBox="0 0 16 18" fill="none" xmlns="http://www.w3.org/2000/svg">
<path id="Vector" d="M4.5 5.92308V4.69231C4.5 3.71305 4.86875 2.77389 5.52513 2.08145C6.1815 1.38901 7.07174 1 8 1C8.92826 1 9.8185 1.38901 10.4749 2.08145C11.1313 2.77389 11.5 3.71305 11.5 4.69231V5.92308M1.58333 5.92308C1.42862 5.92308 1.28025 5.98791 1.17085 6.10332C1.06146 6.21873 1 6.37525 1 6.53846V14.8462C1 16.0092 1.93917 17 3.04167 17H12.3932C13.4957 17 15 16.0573 15 14.8942V6.53846C15 6.37525 14.9385 6.21873 14.8291 6.10332C14.7198 5.98791 14.5714 5.92308 14.4167 5.92308H1.58333Z" stroke="url(#paint0_linear_1015_2108)" stroke-linecap="round" stroke-linejoin="round"/>
<defs>
<linearGradient id="paint0_linear_1015_2108" x1="2.43925" y1="4.16981" x2="15.7176" y2="7.04729" gradientUnits="userSpaceOnUse">
<stop stop-color="#FF1493"/>
<stop offset="1" stop-color="#224BF4"/>
</linearGradient>
</defs>
</svg>
